%TF.GenerationSoftware,KiCad,Pcbnew,9.0.7*%
%TF.CreationDate,2026-02-04T17:28:58+02:00*%
%TF.ProjectId,Azure_chorus,417a7572-655f-4636-986f-7275732e6b69,rev?*%
%TF.SameCoordinates,Original*%
%TF.FileFunction,Soldermask,Top*%
%TF.FilePolarity,Negative*%
%FSLAX46Y46*%
G04 Gerber Fmt 4.6, Leading zero omitted, Abs format (unit mm)*
G04 Created by KiCad (PCBNEW 9.0.7) date 2026-02-04 17:28:58*
%MOMM*%
%LPD*%
G01*
G04 APERTURE LIST*
G04 Aperture macros list*
%AMRoundRect*
0 Rectangle with rounded corners*
0 $1 Rounding radius*
0 $2 $3 $4 $5 $6 $7 $8 $9 X,Y pos of 4 corners*
0 Add a 4 corners polygon primitive as box body*
4,1,4,$2,$3,$4,$5,$6,$7,$8,$9,$2,$3,0*
0 Add four circle primitives for the rounded corners*
1,1,$1+$1,$2,$3*
1,1,$1+$1,$4,$5*
1,1,$1+$1,$6,$7*
1,1,$1+$1,$8,$9*
0 Add four rect primitives between the rounded corners*
20,1,$1+$1,$2,$3,$4,$5,0*
20,1,$1+$1,$4,$5,$6,$7,0*
20,1,$1+$1,$6,$7,$8,$9,0*
20,1,$1+$1,$8,$9,$2,$3,0*%
G04 Aperture macros list end*
%ADD10RoundRect,0.250000X-0.550000X-0.550000X0.550000X-0.550000X0.550000X0.550000X-0.550000X0.550000X0*%
%ADD11C,1.600000*%
%ADD12RoundRect,0.250000X-0.550000X0.550000X-0.550000X-0.550000X0.550000X-0.550000X0.550000X0.550000X0*%
%ADD13R,1.500000X1.500000*%
%ADD14C,1.500000*%
%ADD15R,1.700000X1.700000*%
%ADD16C,1.700000*%
%ADD17RoundRect,0.249999X0.850001X0.850001X-0.850001X0.850001X-0.850001X-0.850001X0.850001X-0.850001X0*%
%ADD18C,2.200000*%
%ADD19RoundRect,0.250000X0.550000X0.550000X-0.550000X0.550000X-0.550000X-0.550000X0.550000X-0.550000X0*%
%ADD20R,1.346200X1.346200*%
%ADD21C,1.346200*%
%ADD22R,1.800000X1.800000*%
%ADD23C,1.800000*%
%ADD24R,1.200000X1.200000*%
%ADD25C,1.200000*%
%ADD26RoundRect,0.250000X0.550000X-0.550000X0.550000X0.550000X-0.550000X0.550000X-0.550000X-0.550000X0*%
G04 APERTURE END LIST*
D10*
%TO.C,U2*%
X120355000Y-112525000D03*
D11*
X120355000Y-115065000D03*
X120355000Y-117605000D03*
X120355000Y-120145000D03*
X127975000Y-120145000D03*
X127975000Y-117605000D03*
X127975000Y-115065000D03*
X127975000Y-112525000D03*
%TD*%
%TO.C,C18*%
X86950000Y-131550000D03*
X81950000Y-131550000D03*
%TD*%
%TO.C,R31*%
X102230000Y-96650000D03*
X109850000Y-96650000D03*
%TD*%
%TO.C,R18*%
X116450000Y-68400000D03*
X124070000Y-68400000D03*
%TD*%
D12*
%TO.C,U1*%
X124760000Y-77245000D03*
D11*
X122220000Y-77245000D03*
X119680000Y-77245000D03*
X117140000Y-77245000D03*
X117140000Y-84865000D03*
X119680000Y-84865000D03*
X122220000Y-84865000D03*
X124760000Y-84865000D03*
%TD*%
D10*
%TO.C,CE2*%
X86694888Y-121100000D03*
D11*
X89194888Y-121100000D03*
%TD*%
%TO.C,R4*%
X121210000Y-131750000D03*
X113590000Y-131750000D03*
%TD*%
%TO.C,R38*%
X87630000Y-125350000D03*
X95250000Y-125350000D03*
%TD*%
D13*
%TO.C,Q1*%
X83920000Y-69000000D03*
D14*
X86460000Y-69000000D03*
X89000000Y-69000000D03*
%TD*%
D11*
%TO.C,C5*%
X119450000Y-74650000D03*
X124450000Y-74650000D03*
%TD*%
%TO.C,C8*%
X113900000Y-73400000D03*
X113900000Y-68400000D03*
%TD*%
%TO.C,C9*%
X81800000Y-92800000D03*
X81800000Y-97800000D03*
%TD*%
%TO.C,R2*%
X84950000Y-99300000D03*
X92570000Y-99300000D03*
%TD*%
%TO.C,R23*%
X100850000Y-116720000D03*
X100850000Y-109100000D03*
%TD*%
%TO.C,R12*%
X127800000Y-76245000D03*
X127800000Y-83865000D03*
%TD*%
%TO.C,C7*%
X124550000Y-87800000D03*
X124550000Y-92800000D03*
%TD*%
%TO.C,R15*%
X114550000Y-86100000D03*
X106930000Y-86100000D03*
%TD*%
%TO.C,R27*%
X127970000Y-109500000D03*
X120350000Y-109500000D03*
%TD*%
%TO.C,R20*%
X81600000Y-82840000D03*
X81600000Y-90460000D03*
%TD*%
%TO.C,C14*%
X115400000Y-103700000D03*
X115400000Y-98700000D03*
%TD*%
%TO.C,R11*%
X110900000Y-80485000D03*
X110900000Y-72865000D03*
%TD*%
%TO.C,C2*%
X102350000Y-82840000D03*
X102350000Y-87840000D03*
%TD*%
%TO.C,C11*%
X122775000Y-106475000D03*
X127775000Y-106475000D03*
%TD*%
%TO.C,R25*%
X106400000Y-99200000D03*
X106400000Y-106820000D03*
%TD*%
%TO.C,R8*%
X93260000Y-73700000D03*
X85640000Y-73700000D03*
%TD*%
%TO.C,R40*%
X119710000Y-128750000D03*
X112090000Y-128750000D03*
%TD*%
D12*
%TO.C,CT1*%
X113700000Y-123244888D03*
D11*
X113700000Y-125744888D03*
%TD*%
%TO.C,C20*%
X95000000Y-119270000D03*
X100000000Y-119270000D03*
%TD*%
%TO.C,R34*%
X112750000Y-93650000D03*
X105130000Y-93650000D03*
%TD*%
D15*
%TO.C,RATE*%
X81900000Y-78590000D03*
D16*
X81900000Y-76050000D03*
X81900000Y-73510000D03*
%TD*%
D11*
%TO.C,R33*%
X124400000Y-103900000D03*
X124400000Y-96280000D03*
%TD*%
%TO.C,R9*%
X107900000Y-80510000D03*
X107900000Y-72890000D03*
%TD*%
%TO.C,R1*%
X83400000Y-118250000D03*
X83400000Y-125870000D03*
%TD*%
D15*
%TO.C,DEPTH1*%
X81850000Y-105930000D03*
D16*
X81850000Y-103390000D03*
X81850000Y-100850000D03*
%TD*%
D10*
%TO.C,CE3*%
X99300000Y-91950000D03*
D11*
X101800000Y-91950000D03*
%TD*%
%TO.C,R36*%
X97850000Y-109090000D03*
X97850000Y-116710000D03*
%TD*%
D10*
%TO.C,D3*%
X96090000Y-106750000D03*
D11*
X103710000Y-106750000D03*
%TD*%
%TO.C,R5*%
X101865000Y-67790000D03*
X101865000Y-75410000D03*
%TD*%
%TO.C,R32*%
X92150000Y-119600000D03*
X92150000Y-111980000D03*
%TD*%
%TO.C,R29*%
X112830000Y-106500000D03*
X120450000Y-106500000D03*
%TD*%
%TO.C,R19*%
X84750000Y-77350000D03*
X92370000Y-77350000D03*
%TD*%
D17*
%TO.C,Z1*%
X127980000Y-123300000D03*
D18*
X117820000Y-123300000D03*
%TD*%
D11*
%TO.C,R3*%
X95360000Y-93150000D03*
X87740000Y-93150000D03*
%TD*%
D19*
%TO.C,U3*%
X117075000Y-117145000D03*
D11*
X117075000Y-114605000D03*
X117075000Y-112065000D03*
X117075000Y-109525000D03*
X109455000Y-109525000D03*
X109455000Y-112065000D03*
X109455000Y-114605000D03*
X109455000Y-117145000D03*
%TD*%
%TO.C,C15*%
X98500000Y-98950000D03*
X98500000Y-103950000D03*
%TD*%
D15*
%TO.C,BT1*%
X94300000Y-131950000D03*
D16*
X91760000Y-131950000D03*
%TD*%
D11*
%TO.C,C10*%
X94900000Y-96200000D03*
X99900000Y-96200000D03*
%TD*%
%TO.C,R21*%
X84800000Y-82940000D03*
X84800000Y-90560000D03*
%TD*%
D13*
%TO.C,Q5*%
X109940000Y-124550000D03*
D14*
X107400000Y-124550000D03*
X104860000Y-124550000D03*
%TD*%
D19*
%TO.C,CE4*%
X127000000Y-128400000D03*
D11*
X124500000Y-128400000D03*
%TD*%
%TO.C,R24*%
X109400000Y-106860000D03*
X109400000Y-99240000D03*
%TD*%
D15*
%TO.C,IN*%
X92550000Y-70390000D03*
D16*
X92550000Y-67850000D03*
%TD*%
D12*
%TO.C,CE1*%
X107000000Y-129450000D03*
D11*
X107000000Y-131950000D03*
%TD*%
D13*
%TO.C,Q2*%
X92640000Y-102940000D03*
D14*
X90100000Y-102940000D03*
X87560000Y-102940000D03*
%TD*%
D12*
%TO.C,U4*%
X95960000Y-82945000D03*
D11*
X93420000Y-82945000D03*
X90880000Y-82945000D03*
X88340000Y-82945000D03*
X88340000Y-90565000D03*
X90880000Y-90565000D03*
X93420000Y-90565000D03*
X95960000Y-90565000D03*
%TD*%
D20*
%TO.C,3362P1*%
X86088100Y-111110000D03*
D21*
X88628100Y-113650000D03*
X86088100Y-116190000D03*
%TD*%
D15*
%TO.C,OUT1*%
X128200000Y-71245000D03*
D16*
X128200000Y-68705000D03*
%TD*%
D11*
%TO.C,C16*%
X106875000Y-114625000D03*
X106875000Y-109625000D03*
%TD*%
D22*
%TO.C,LED*%
X102070000Y-78000000D03*
D23*
X99530000Y-78000000D03*
%TD*%
D11*
%TO.C,R43*%
X81940000Y-128500000D03*
X89560000Y-128500000D03*
%TD*%
%TO.C,R37*%
X92520000Y-107800000D03*
X84900000Y-107800000D03*
%TD*%
%TO.C,R17*%
X114050000Y-83360000D03*
X114050000Y-75740000D03*
%TD*%
%TO.C,R42*%
X95850000Y-67340000D03*
X95850000Y-74960000D03*
%TD*%
%TO.C,R39*%
X92580000Y-122350000D03*
X100200000Y-122350000D03*
%TD*%
%TO.C,R26*%
X84950000Y-96150000D03*
X92570000Y-96150000D03*
%TD*%
D24*
%TO.C,SW1*%
X105600000Y-67700000D03*
D25*
X108140000Y-67700000D03*
X110680000Y-67700000D03*
X105600000Y-70240000D03*
X108140000Y-70240000D03*
X110680000Y-70240000D03*
%TD*%
D11*
%TO.C,R35*%
X118400000Y-103910000D03*
X118400000Y-96290000D03*
%TD*%
%TO.C,C6*%
X118400000Y-92200000D03*
X118400000Y-87200000D03*
%TD*%
%TO.C,C17*%
X95300000Y-99250000D03*
X95300000Y-104250000D03*
%TD*%
%TO.C,C13*%
X115400000Y-91200000D03*
X115400000Y-96200000D03*
%TD*%
%TO.C,C12*%
X121400000Y-103700000D03*
X121400000Y-98700000D03*
%TD*%
D13*
%TO.C,Q3*%
X107380000Y-119800000D03*
D14*
X104840000Y-119800000D03*
X102300000Y-119800000D03*
%TD*%
D11*
%TO.C,R16*%
X121400000Y-94860000D03*
X121400000Y-87240000D03*
%TD*%
D26*
%TO.C,D1*%
X95050000Y-116700000D03*
D11*
X95050000Y-109080000D03*
%TD*%
%TO.C,C4*%
X110200000Y-83100000D03*
X105200000Y-83100000D03*
%TD*%
D13*
%TO.C,Q4*%
X102750000Y-104290000D03*
D14*
X102750000Y-101750000D03*
X102750000Y-99210000D03*
%TD*%
D11*
%TO.C,R13*%
X124110000Y-71650000D03*
X116490000Y-71650000D03*
%TD*%
%TO.C,R22*%
X84940000Y-80350000D03*
X92560000Y-80350000D03*
%TD*%
%TO.C,C19*%
X97550000Y-125350000D03*
X102550000Y-125350000D03*
%TD*%
%TO.C,R6*%
X98850000Y-67790000D03*
X98850000Y-75410000D03*
%TD*%
%TO.C,C1*%
X102350000Y-131700000D03*
X97350000Y-131700000D03*
%TD*%
D15*
%TO.C,MIX1*%
X127700000Y-98100000D03*
D16*
X127700000Y-100640000D03*
X127700000Y-103180000D03*
%TD*%
D11*
%TO.C,R10*%
X104900000Y-80510000D03*
X104900000Y-72890000D03*
%TD*%
%TO.C,R41*%
X109450000Y-120200000D03*
X117070000Y-120200000D03*
%TD*%
D17*
%TO.C,D2*%
X102180000Y-128550000D03*
D18*
X92020000Y-128550000D03*
%TD*%
D11*
%TO.C,R7*%
X105190000Y-89150000D03*
X112810000Y-89150000D03*
%TD*%
%TO.C,C3*%
X99000000Y-82550000D03*
X99000000Y-87550000D03*
%TD*%
%TO.C,R30*%
X112400000Y-96240000D03*
X112400000Y-103860000D03*
%TD*%
%TO.C,R28*%
X103850000Y-116720000D03*
X103850000Y-109100000D03*
%TD*%
%TO.C,R14*%
X127750000Y-87590000D03*
X127750000Y-95210000D03*
%TD*%
M02*
