M48
; DRILL file {KiCad 9.0.7} date 2026-02-04T17:29:03+0200
; FORMAT={-:-/ absolute / metric / decimal}
; #@! TF.CreationDate,2026-02-04T17:29:03+02:00
; #@! TF.GenerationSoftware,Kicad,Pcbnew,9.0.7
; #@! TF.FileFunction,Plated,1,2,PTH
FMAT,2
METRIC
; #@! TA.AperFunction,Plated,PTH,ComponentDrill
T1C0.600
; #@! TA.AperFunction,Plated,PTH,ComponentDrill
T2C0.800
; #@! TA.AperFunction,Plated,PTH,ComponentDrill
T3C0.838
; #@! TA.AperFunction,Plated,PTH,ComponentDrill
T4C0.900
; #@! TA.AperFunction,Plated,PTH,ComponentDrill
T5C1.000
; #@! TA.AperFunction,Plated,PTH,ComponentDrill
T6C1.100
%
G90
G05
T1
X105.6Y-67.7
X105.6Y-70.24
X108.14Y-67.7
X108.14Y-70.24
X110.68Y-67.7
X110.68Y-70.24
T2
X81.6Y-82.84
X81.6Y-90.46
X81.8Y-92.8
X81.8Y-97.8
X81.94Y-128.5
X81.95Y-131.55
X83.4Y-118.25
X83.4Y-125.87
X83.92Y-69.0
X84.75Y-77.35
X84.8Y-82.94
X84.8Y-90.56
X84.9Y-107.8
X84.94Y-80.35
X84.95Y-96.15
X84.95Y-99.3
X85.64Y-73.7
X86.46Y-69.0
X86.695Y-121.1
X86.95Y-131.55
X87.56Y-102.94
X87.63Y-125.35
X87.74Y-93.15
X88.34Y-82.945
X88.34Y-90.565
X89.0Y-69.0
X89.195Y-121.1
X89.56Y-128.5
X90.1Y-102.94
X90.88Y-82.945
X90.88Y-90.565
X92.15Y-111.98
X92.15Y-119.6
X92.37Y-77.35
X92.52Y-107.8
X92.56Y-80.35
X92.57Y-96.15
X92.57Y-99.3
X92.58Y-122.35
X92.64Y-102.94
X93.26Y-73.7
X93.42Y-82.945
X93.42Y-90.565
X94.9Y-96.2
X95.0Y-119.27
X95.05Y-109.08
X95.05Y-116.7
X95.25Y-125.35
X95.3Y-99.25
X95.3Y-104.25
X95.36Y-93.15
X95.85Y-67.34
X95.85Y-74.96
X95.96Y-82.945
X95.96Y-90.565
X96.09Y-106.75
X97.35Y-131.7
X97.55Y-125.35
X97.85Y-109.09
X97.85Y-116.71
X98.5Y-98.95
X98.5Y-103.95
X98.85Y-67.79
X98.85Y-75.41
X99.0Y-82.55
X99.0Y-87.55
X99.3Y-91.95
X99.9Y-96.2
X100.0Y-119.27
X100.2Y-122.35
X100.85Y-109.1
X100.85Y-116.72
X101.8Y-91.95
X101.865Y-67.79
X101.865Y-75.41
X102.23Y-96.65
X102.3Y-119.8
X102.35Y-82.84
X102.35Y-87.84
X102.35Y-131.7
X102.55Y-125.35
X102.75Y-99.21
X102.75Y-101.75
X102.75Y-104.29
X103.71Y-106.75
X103.85Y-109.1
X103.85Y-116.72
X104.84Y-119.8
X104.86Y-124.55
X104.9Y-72.89
X104.9Y-80.51
X105.13Y-93.65
X105.19Y-89.15
X105.2Y-83.1
X106.4Y-99.2
X106.4Y-106.82
X106.875Y-109.625
X106.875Y-114.625
X106.93Y-86.1
X107.0Y-129.45
X107.0Y-131.95
X107.38Y-119.8
X107.4Y-124.55
X107.9Y-72.89
X107.9Y-80.51
X109.4Y-99.24
X109.4Y-106.86
X109.45Y-120.2
X109.455Y-109.525
X109.455Y-112.065
X109.455Y-114.605
X109.455Y-117.145
X109.85Y-96.65
X109.94Y-124.55
X110.2Y-83.1
X110.9Y-72.865
X110.9Y-80.485
X112.09Y-128.75
X112.4Y-96.24
X112.4Y-103.86
X112.75Y-93.65
X112.81Y-89.15
X112.83Y-106.5
X113.59Y-131.75
X113.7Y-123.245
X113.7Y-125.745
X113.9Y-68.4
X113.9Y-73.4
X114.05Y-75.74
X114.05Y-83.36
X114.55Y-86.1
X115.4Y-91.2
X115.4Y-96.2
X115.4Y-98.7
X115.4Y-103.7
X116.45Y-68.4
X116.49Y-71.65
X117.07Y-120.2
X117.075Y-109.525
X117.075Y-112.065
X117.075Y-114.605
X117.075Y-117.145
X117.14Y-77.245
X117.14Y-84.865
X118.4Y-87.2
X118.4Y-92.2
X118.4Y-96.29
X118.4Y-103.91
X119.45Y-74.65
X119.68Y-77.245
X119.68Y-84.865
X119.71Y-128.75
X120.35Y-109.5
X120.355Y-112.525
X120.355Y-115.065
X120.355Y-117.605
X120.355Y-120.145
X120.45Y-106.5
X121.21Y-131.75
X121.4Y-87.24
X121.4Y-94.86
X121.4Y-98.7
X121.4Y-103.7
X122.22Y-77.245
X122.22Y-84.865
X122.775Y-106.475
X124.07Y-68.4
X124.11Y-71.65
X124.4Y-96.28
X124.4Y-103.9
X124.45Y-74.65
X124.5Y-128.4
X124.55Y-87.8
X124.55Y-92.8
X124.76Y-77.245
X124.76Y-84.865
X127.0Y-128.4
X127.75Y-87.59
X127.75Y-95.21
X127.775Y-106.475
X127.8Y-76.245
X127.8Y-83.865
X127.97Y-109.5
X127.975Y-112.525
X127.975Y-115.065
X127.975Y-117.605
X127.975Y-120.145
T3
X86.088Y-111.11
X86.088Y-116.19
X88.628Y-113.65
T4
X99.53Y-78.0
X102.07Y-78.0
T5
X81.85Y-100.85
X81.85Y-103.39
X81.85Y-105.93
X81.9Y-73.51
X81.9Y-76.05
X81.9Y-78.59
X91.76Y-131.95
X92.55Y-67.85
X92.55Y-70.39
X94.3Y-131.95
X127.7Y-98.1
X127.7Y-100.64
X127.7Y-103.18
X128.2Y-68.705
X128.2Y-71.245
T6
X92.02Y-128.55
X102.18Y-128.55
X117.82Y-123.3
X127.98Y-123.3
M30
