ISO-10303-21;
HEADER;
/* Generated by software containing ST-Developer
 * from STEP Tools, Inc. (www.steptools.com) 
 */

FILE_DESCRIPTION(
/* description */ (''),
/* implementation_level */ '2;1');

FILE_NAME(
/* name */ 'C_disc_D3.8_W1.8_P3.step',
/* time_stamp */ '2026-09-23T15:55:31+03:00',
/* author */ (''),
/* organization */ (''),
/* preprocessor_version */ 'ST-DEVELOPER v20.2',
/* originating_system */ 'Autodesk Translation Framework v15.15.0.0',
/* authorisation */ '');

FILE_SCHEMA (('AUTOMOTIVE_DESIGN { 1 0 10303 214 3 1 1 }'));
ENDSEC;

DATA;
#10=MECHANICAL_DESIGN_GEOMETRIC_PRESENTATION_REPRESENTATION('',(#23,#24,
#25),#461);
#11=SHAPE_REPRESENTATION_RELATIONSHIP('SRR','None',#468,#12);
#12=ADVANCED_BREP_SHAPE_REPRESENTATION('',(#26,#27,#28),#460);
#13=PLANE('',#251);
#14=PLANE('',#252);
#15=PLANE('',#263);
#16=PLANE('',#264);
#17=TOROIDAL_SURFACE('',#245,1.50000000000002,0.25);
#18=TOROIDAL_SURFACE('',#257,1.49999999999999,0.25);
#19=CYLINDRICAL_SURFACE('',#241,0.25);
#20=CYLINDRICAL_SURFACE('',#249,0.25);
#21=CYLINDRICAL_SURFACE('',#253,0.25);
#22=CYLINDRICAL_SURFACE('',#261,0.25);
#23=STYLED_ITEM('',(#478),#26);
#24=STYLED_ITEM('',(#479),#27);
#25=STYLED_ITEM('',(#479),#28);
#26=MANIFOLD_SOLID_BREP('Body1',#214);
#27=MANIFOLD_SOLID_BREP('Body2',#215);
#28=MANIFOLD_SOLID_BREP('Body3',#216);
#29=LINE('',#380,#35);
#30=LINE('',#417,#36);
#31=LINE('',#422,#37);
#32=LINE('',#434,#38);
#33=LINE('',#442,#39);
#34=LINE('',#454,#40);
#35=VECTOR('',#277,1.9);
#36=VECTOR('',#290,1.9);
#37=VECTOR('',#295,0.25);
#38=VECTOR('',#310,0.25);
#39=VECTOR('',#321,0.25);
#40=VECTOR('',#336,0.25);
#41=CONICAL_SURFACE('',#234,1.9,0.698131700797732);
#42=CONICAL_SURFACE('',#240,1.9,0.698131700797732);
#43=FACE_OUTER_BOUND('',#57,.T.);
#44=FACE_OUTER_BOUND('',#58,.T.);
#45=FACE_OUTER_BOUND('',#59,.T.);
#46=FACE_OUTER_BOUND('',#60,.T.);
#47=FACE_OUTER_BOUND('',#61,.T.);
#48=FACE_OUTER_BOUND('',#62,.T.);
#49=FACE_OUTER_BOUND('',#63,.T.);
#50=FACE_OUTER_BOUND('',#64,.T.);
#51=FACE_OUTER_BOUND('',#65,.T.);
#52=FACE_OUTER_BOUND('',#66,.T.);
#53=FACE_OUTER_BOUND('',#67,.T.);
#54=FACE_OUTER_BOUND('',#68,.T.);
#55=FACE_OUTER_BOUND('',#69,.T.);
#56=FACE_OUTER_BOUND('',#70,.T.);
#57=EDGE_LOOP('',(#142,#143,#144,#145,#146));
#58=EDGE_LOOP('',(#147,#148,#149,#150,#151));
#59=EDGE_LOOP('',(#152,#153,#154,#155,#156));
#60=EDGE_LOOP('',(#157,#158,#159,#160,#161));
#61=EDGE_LOOP('',(#162,#163,#164,#165,#166));
#62=EDGE_LOOP('',(#167,#168,#169,#170,#171,#172));
#63=EDGE_LOOP('',(#173,#174,#175,#176,#177));
#64=EDGE_LOOP('',(#178));
#65=EDGE_LOOP('',(#179));
#66=EDGE_LOOP('',(#180,#181,#182,#183,#184));
#67=EDGE_LOOP('',(#185,#186,#187,#188,#189,#190));
#68=EDGE_LOOP('',(#191,#192,#193,#194,#195));
#69=EDGE_LOOP('',(#196));
#70=EDGE_LOOP('',(#197));
#71=CIRCLE('',#230,1.88066413902702);
#72=CIRCLE('',#231,2.455);
#73=CIRCLE('',#232,2.50311699262484E-5);
#74=CIRCLE('',#233,1.88066413902702);
#75=CIRCLE('',#235,1.9);
#76=CIRCLE('',#236,1.88066413902702);
#77=CIRCLE('',#237,2.455);
#78=CIRCLE('',#238,2.50311699262484E-5);
#79=CIRCLE('',#239,1.88066413902702);
#80=CIRCLE('',#242,0.25);
#81=CIRCLE('',#243,0.25);
#82=CIRCLE('',#244,0.25);
#83=CIRCLE('',#246,1.25000000000002);
#84=CIRCLE('',#247,0.25);
#85=CIRCLE('',#248,0.25);
#86=CIRCLE('',#250,0.25);
#87=CIRCLE('',#254,0.25);
#88=CIRCLE('',#255,0.25);
#89=CIRCLE('',#256,0.25);
#90=CIRCLE('',#258,1.25);
#91=CIRCLE('',#259,0.25);
#92=CIRCLE('',#260,0.25);
#93=CIRCLE('',#262,0.25);
#94=VERTEX_POINT('',#371);
#95=VERTEX_POINT('',#372);
#96=VERTEX_POINT('',#374);
#97=VERTEX_POINT('',#379);
#98=VERTEX_POINT('',#409);
#99=VERTEX_POINT('',#410);
#100=VERTEX_POINT('',#412);
#101=VERTEX_POINT('',#419);
#102=VERTEX_POINT('',#421);
#103=VERTEX_POINT('',#423);
#104=VERTEX_POINT('',#427);
#105=VERTEX_POINT('',#429);
#106=VERTEX_POINT('',#433);
#107=VERTEX_POINT('',#439);
#108=VERTEX_POINT('',#441);
#109=VERTEX_POINT('',#443);
#110=VERTEX_POINT('',#447);
#111=VERTEX_POINT('',#449);
#112=VERTEX_POINT('',#453);
#113=EDGE_CURVE('',#94,#95,#71,.T.);
#114=EDGE_CURVE('',#95,#96,#72,.T.);
#115=EDGE_CURVE('',#96,#96,#73,.T.);
#116=EDGE_CURVE('',#95,#94,#74,.T.);
#117=EDGE_CURVE('',#94,#97,#29,.T.);
#118=EDGE_CURVE('',#97,#97,#75,.T.);
#119=EDGE_CURVE('',#98,#99,#76,.T.);
#120=EDGE_CURVE('',#99,#100,#77,.T.);
#121=EDGE_CURVE('',#100,#100,#78,.T.);
#122=EDGE_CURVE('',#99,#98,#79,.T.);
#123=EDGE_CURVE('',#98,#97,#30,.T.);
#124=EDGE_CURVE('',#101,#101,#80,.T.);
#125=EDGE_CURVE('',#101,#102,#31,.T.);
#126=EDGE_CURVE('',#102,#103,#81,.T.);
#127=EDGE_CURVE('',#103,#102,#82,.T.);
#128=EDGE_CURVE('',#103,#104,#83,.T.);
#129=EDGE_CURVE('',#104,#105,#84,.T.);
#130=EDGE_CURVE('',#105,#104,#85,.T.);
#131=EDGE_CURVE('',#105,#106,#32,.T.);
#132=EDGE_CURVE('',#106,#106,#86,.T.);
#133=EDGE_CURVE('',#107,#107,#87,.T.);
#134=EDGE_CURVE('',#107,#108,#33,.T.);
#135=EDGE_CURVE('',#108,#109,#88,.T.);
#136=EDGE_CURVE('',#109,#108,#89,.T.);
#137=EDGE_CURVE('',#109,#110,#90,.T.);
#138=EDGE_CURVE('',#110,#111,#91,.T.);
#139=EDGE_CURVE('',#111,#110,#92,.T.);
#140=EDGE_CURVE('',#111,#112,#34,.T.);
#141=EDGE_CURVE('',#112,#112,#93,.T.);
#142=ORIENTED_EDGE('',*,*,#113,.T.);
#143=ORIENTED_EDGE('',*,*,#114,.T.);
#144=ORIENTED_EDGE('',*,*,#115,.T.);
#145=ORIENTED_EDGE('',*,*,#114,.F.);
#146=ORIENTED_EDGE('',*,*,#116,.T.);
#147=ORIENTED_EDGE('',*,*,#113,.F.);
#148=ORIENTED_EDGE('',*,*,#117,.T.);
#149=ORIENTED_EDGE('',*,*,#118,.T.);
#150=ORIENTED_EDGE('',*,*,#117,.F.);
#151=ORIENTED_EDGE('',*,*,#116,.F.);
#152=ORIENTED_EDGE('',*,*,#119,.T.);
#153=ORIENTED_EDGE('',*,*,#120,.T.);
#154=ORIENTED_EDGE('',*,*,#121,.T.);
#155=ORIENTED_EDGE('',*,*,#120,.F.);
#156=ORIENTED_EDGE('',*,*,#122,.T.);
#157=ORIENTED_EDGE('',*,*,#119,.F.);
#158=ORIENTED_EDGE('',*,*,#123,.T.);
#159=ORIENTED_EDGE('',*,*,#118,.F.);
#160=ORIENTED_EDGE('',*,*,#123,.F.);
#161=ORIENTED_EDGE('',*,*,#122,.F.);
#162=ORIENTED_EDGE('',*,*,#124,.F.);
#163=ORIENTED_EDGE('',*,*,#125,.T.);
#164=ORIENTED_EDGE('',*,*,#126,.T.);
#165=ORIENTED_EDGE('',*,*,#127,.T.);
#166=ORIENTED_EDGE('',*,*,#125,.F.);
#167=ORIENTED_EDGE('',*,*,#126,.F.);
#168=ORIENTED_EDGE('',*,*,#127,.F.);
#169=ORIENTED_EDGE('',*,*,#128,.T.);
#170=ORIENTED_EDGE('',*,*,#129,.T.);
#171=ORIENTED_EDGE('',*,*,#130,.T.);
#172=ORIENTED_EDGE('',*,*,#128,.F.);
#173=ORIENTED_EDGE('',*,*,#130,.F.);
#174=ORIENTED_EDGE('',*,*,#131,.T.);
#175=ORIENTED_EDGE('',*,*,#132,.T.);
#176=ORIENTED_EDGE('',*,*,#131,.F.);
#177=ORIENTED_EDGE('',*,*,#129,.F.);
#178=ORIENTED_EDGE('',*,*,#124,.T.);
#179=ORIENTED_EDGE('',*,*,#132,.F.);
#180=ORIENTED_EDGE('',*,*,#133,.F.);
#181=ORIENTED_EDGE('',*,*,#134,.T.);
#182=ORIENTED_EDGE('',*,*,#135,.T.);
#183=ORIENTED_EDGE('',*,*,#136,.T.);
#184=ORIENTED_EDGE('',*,*,#134,.F.);
#185=ORIENTED_EDGE('',*,*,#135,.F.);
#186=ORIENTED_EDGE('',*,*,#136,.F.);
#187=ORIENTED_EDGE('',*,*,#137,.T.);
#188=ORIENTED_EDGE('',*,*,#138,.T.);
#189=ORIENTED_EDGE('',*,*,#139,.T.);
#190=ORIENTED_EDGE('',*,*,#137,.F.);
#191=ORIENTED_EDGE('',*,*,#139,.F.);
#192=ORIENTED_EDGE('',*,*,#140,.T.);
#193=ORIENTED_EDGE('',*,*,#141,.T.);
#194=ORIENTED_EDGE('',*,*,#140,.F.);
#195=ORIENTED_EDGE('',*,*,#138,.F.);
#196=ORIENTED_EDGE('',*,*,#133,.T.);
#197=ORIENTED_EDGE('',*,*,#141,.F.);
#198=(
BOUNDED_SURFACE()
B_SPLINE_SURFACE(2,2,((#344,#345,#346,#347,#348,#349,#350,#351,#352),(#353,
#354,#355,#356,#357,#358,#359,#360,#361),(#362,#363,#364,#365,#366,#367,
#368,#369,#370)),.UNSPECIFIED.,.F.,.T.,.F.)
B_SPLINE_SURFACE_WITH_KNOTS((3,3),(3,2,2,2,3),(-1.5707963267949,-0.698131700797732),
(-3.14159265358979,-1.5707963267949,0.,1.5707963267949,3.14159265358979),
 .UNSPECIFIED.)
GEOMETRIC_REPRESENTATION_ITEM()
RATIONAL_B_SPLINE_SURFACE(((1.,0.707106781186548,1.,0.707106781186548,1.,
0.707106781186548,1.,0.707106781186548,1.),(0.906307787036649,0.640856382055788,
0.906307787036649,0.640856382055788,0.906307787036649,0.640856382055788,
0.906307787036649,0.640856382055788,0.906307787036649),(1.,0.707106781186548,
1.,0.707106781186548,1.,0.707106781186548,1.,0.707106781186548,1.)))
REPRESENTATION_ITEM('')
SURFACE()
);
#199=(
BOUNDED_SURFACE()
B_SPLINE_SURFACE(2,2,((#382,#383,#384,#385,#386,#387,#388,#389,#390),(#391,
#392,#393,#394,#395,#396,#397,#398,#399),(#400,#401,#402,#403,#404,#405,
#406,#407,#408)),.UNSPECIFIED.,.F.,.T.,.F.)
B_SPLINE_SURFACE_WITH_KNOTS((3,3),(3,2,2,2,3),(-1.5707963267949,-0.698131700797732),
(-3.14159265358979,-1.5707963267949,0.,1.5707963267949,3.14159265358979),
 .UNSPECIFIED.)
GEOMETRIC_REPRESENTATION_ITEM()
RATIONAL_B_SPLINE_SURFACE(((1.,0.707106781186548,1.,0.707106781186548,1.,
0.707106781186548,1.,0.707106781186548,1.),(0.906307787036649,0.640856382055788,
0.906307787036649,0.640856382055788,0.906307787036649,0.640856382055788,
0.906307787036649,0.640856382055788,0.906307787036649),(1.,0.707106781186548,
1.,0.707106781186548,1.,0.707106781186548,1.,0.707106781186548,1.)))
REPRESENTATION_ITEM('')
SURFACE()
);
#200=ADVANCED_FACE('',(#43),#198,.F.);
#201=ADVANCED_FACE('',(#44),#41,.T.);
#202=ADVANCED_FACE('',(#45),#199,.F.);
#203=ADVANCED_FACE('',(#46),#42,.T.);
#204=ADVANCED_FACE('',(#47),#19,.T.);
#205=ADVANCED_FACE('',(#48),#17,.T.);
#206=ADVANCED_FACE('',(#49),#20,.T.);
#207=ADVANCED_FACE('',(#50),#13,.T.);
#208=ADVANCED_FACE('',(#51),#14,.F.);
#209=ADVANCED_FACE('',(#52),#21,.T.);
#210=ADVANCED_FACE('',(#53),#18,.T.);
#211=ADVANCED_FACE('',(#54),#22,.T.);
#212=ADVANCED_FACE('',(#55),#15,.T.);
#213=ADVANCED_FACE('',(#56),#16,.F.);
#214=CLOSED_SHELL('',(#200,#201,#202,#203));
#215=CLOSED_SHELL('',(#204,#205,#206,#207,#208));
#216=CLOSED_SHELL('',(#209,#210,#211,#212,#213));
#217=DERIVED_UNIT_ELEMENT(#219,1.);
#218=DERIVED_UNIT_ELEMENT(#463,-3.);
#219=(
MASS_UNIT()
NAMED_UNIT(*)
SI_UNIT(.KILO.,.GRAM.)
);
#220=DERIVED_UNIT((#217,#218));
#221=MEASURE_REPRESENTATION_ITEM('density measure',
POSITIVE_RATIO_MEASURE(7850.),#220);
#222=PROPERTY_DEFINITION_REPRESENTATION(#227,#224);
#223=PROPERTY_DEFINITION_REPRESENTATION(#228,#225);
#224=REPRESENTATION('material name',(#226),#460);
#225=REPRESENTATION('density',(#221),#460);
#226=DESCRIPTIVE_REPRESENTATION_ITEM('Steel','Steel');
#227=PROPERTY_DEFINITION('material property','material name',#470);
#228=PROPERTY_DEFINITION('material property','density of part',#470);
#229=AXIS2_PLACEMENT_3D('',#343,#265,#266);
#230=AXIS2_PLACEMENT_3D('',#373,#267,#268);
#231=AXIS2_PLACEMENT_3D('',#375,#269,#270);
#232=AXIS2_PLACEMENT_3D('',#376,#271,#272);
#233=AXIS2_PLACEMENT_3D('',#377,#273,#274);
#234=AXIS2_PLACEMENT_3D('',#378,#275,#276);
#235=AXIS2_PLACEMENT_3D('',#381,#278,#279);
#236=AXIS2_PLACEMENT_3D('',#411,#280,#281);
#237=AXIS2_PLACEMENT_3D('',#413,#282,#283);
#238=AXIS2_PLACEMENT_3D('',#414,#284,#285);
#239=AXIS2_PLACEMENT_3D('',#415,#286,#287);
#240=AXIS2_PLACEMENT_3D('',#416,#288,#289);
#241=AXIS2_PLACEMENT_3D('',#418,#291,#292);
#242=AXIS2_PLACEMENT_3D('',#420,#293,#294);
#243=AXIS2_PLACEMENT_3D('',#424,#296,#297);
#244=AXIS2_PLACEMENT_3D('',#425,#298,#299);
#245=AXIS2_PLACEMENT_3D('',#426,#300,#301);
#246=AXIS2_PLACEMENT_3D('',#428,#302,#303);
#247=AXIS2_PLACEMENT_3D('',#430,#304,#305);
#248=AXIS2_PLACEMENT_3D('',#431,#306,#307);
#249=AXIS2_PLACEMENT_3D('',#432,#308,#309);
#250=AXIS2_PLACEMENT_3D('',#435,#311,#312);
#251=AXIS2_PLACEMENT_3D('',#436,#313,#314);
#252=AXIS2_PLACEMENT_3D('',#437,#315,#316);
#253=AXIS2_PLACEMENT_3D('',#438,#317,#318);
#254=AXIS2_PLACEMENT_3D('',#440,#319,#320);
#255=AXIS2_PLACEMENT_3D('',#444,#322,#323);
#256=AXIS2_PLACEMENT_3D('',#445,#324,#325);
#257=AXIS2_PLACEMENT_3D('',#446,#326,#327);
#258=AXIS2_PLACEMENT_3D('',#448,#328,#329);
#259=AXIS2_PLACEMENT_3D('',#450,#330,#331);
#260=AXIS2_PLACEMENT_3D('',#451,#332,#333);
#261=AXIS2_PLACEMENT_3D('',#452,#334,#335);
#262=AXIS2_PLACEMENT_3D('',#455,#337,#338);
#263=AXIS2_PLACEMENT_3D('',#456,#339,#340);
#264=AXIS2_PLACEMENT_3D('',#457,#341,#342);
#265=DIRECTION('axis',(0.,0.,1.));
#266=DIRECTION('refdir',(1.,0.,0.));
#267=DIRECTION('center_axis',(0.,1.,0.));
#268=DIRECTION('ref_axis',(1.,0.,-6.12323399573677E-17));
#269=DIRECTION('center_axis',(-1.,0.,-1.22464679914735E-16));
#270=DIRECTION('ref_axis',(-1.22464679914735E-16,0.,1.));
#271=DIRECTION('center_axis',(0.,-1.,0.));
#272=DIRECTION('ref_axis',(1.,0.,0.));
#273=DIRECTION('center_axis',(0.,1.,0.));
#274=DIRECTION('ref_axis',(1.,0.,-6.12323399573677E-17));
#275=DIRECTION('center_axis',(0.,-1.,0.));
#276=DIRECTION('ref_axis',(1.,0.,0.));
#277=DIRECTION('',(-0.642787609686539,-0.766044443118978,7.87187788734199E-17));
#278=DIRECTION('center_axis',(0.,1.,0.));
#279=DIRECTION('ref_axis',(1.,0.,0.));
#280=DIRECTION('center_axis',(0.,-1.,0.));
#281=DIRECTION('ref_axis',(1.,0.,6.12323399573677E-17));
#282=DIRECTION('center_axis',(-1.,0.,1.22464679914735E-16));
#283=DIRECTION('ref_axis',(-1.22464679914735E-16,0.,-1.));
#284=DIRECTION('center_axis',(0.,1.,0.));
#285=DIRECTION('ref_axis',(1.,0.,0.));
#286=DIRECTION('center_axis',(0.,-1.,0.));
#287=DIRECTION('ref_axis',(1.,0.,6.12323399573677E-17));
#288=DIRECTION('center_axis',(0.,1.,0.));
#289=DIRECTION('ref_axis',(1.,0.,0.));
#290=DIRECTION('',(-0.642787609686539,0.766044443118978,-7.87187788734199E-17));
#291=DIRECTION('center_axis',(0.,0.,-1.));
#292=DIRECTION('ref_axis',(0.,1.,0.));
#293=DIRECTION('center_axis',(2.58176813261457E-12,0.,-1.));
#294=DIRECTION('ref_axis',(0.,1.,0.));
#295=DIRECTION('',(0.,0.,1.));
#296=DIRECTION('center_axis',(2.58176813261457E-12,0.,-1.));
#297=DIRECTION('ref_axis',(0.,1.,0.));
#298=DIRECTION('center_axis',(2.58176813261457E-12,0.,-1.));
#299=DIRECTION('ref_axis',(0.,1.,0.));
#300=DIRECTION('center_axis',(0.,1.,0.));
#301=DIRECTION('ref_axis',(0.,0.,1.));
#302=DIRECTION('center_axis',(0.,-1.,0.));
#303=DIRECTION('ref_axis',(0.,0.,1.));
#304=DIRECTION('center_axis',(0.500000000002228,0.,-0.866025403783153));
#305=DIRECTION('ref_axis',(0.,1.,0.));
#306=DIRECTION('center_axis',(0.500000000002228,0.,-0.866025403783153));
#307=DIRECTION('ref_axis',(0.,1.,0.));
#308=DIRECTION('center_axis',(0.500000000002228,0.,-0.866025403783153));
#309=DIRECTION('ref_axis',(0.,1.,0.));
#310=DIRECTION('',(-0.500000000002228,0.,0.866025403783152));
#311=DIRECTION('center_axis',(0.500000000002228,0.,-0.866025403783153));
#312=DIRECTION('ref_axis',(0.,1.,0.));
#313=DIRECTION('center_axis',(2.58176813261457E-12,0.,-1.));
#314=DIRECTION('ref_axis',(-1.,0.,-2.58176813261457E-12));
#315=DIRECTION('center_axis',(0.500000000002228,0.,-0.866025403783153));
#316=DIRECTION('ref_axis',(-0.866025403783153,0.,-0.500000000002228));
#317=DIRECTION('center_axis',(0.,0.,-1.));
#318=DIRECTION('ref_axis',(0.,-1.,0.));
#319=DIRECTION('center_axis',(1.11022302462516E-15,0.,-1.));
#320=DIRECTION('ref_axis',(0.,-1.,0.));
#321=DIRECTION('',(0.,0.,1.));
#322=DIRECTION('center_axis',(1.11022302462516E-15,0.,-1.));
#323=DIRECTION('ref_axis',(0.,-1.,0.));
#324=DIRECTION('center_axis',(1.11022302462516E-15,0.,-1.));
#325=DIRECTION('ref_axis',(0.,-1.,0.));
#326=DIRECTION('center_axis',(0.,-1.,0.));
#327=DIRECTION('ref_axis',(0.,0.,-1.));
#328=DIRECTION('center_axis',(0.,1.,0.));
#329=DIRECTION('ref_axis',(0.,0.,-1.));
#330=DIRECTION('center_axis',(-0.5,0.,-0.866025403784439));
#331=DIRECTION('ref_axis',(0.,-1.,0.));
#332=DIRECTION('center_axis',(-0.5,0.,-0.866025403784439));
#333=DIRECTION('ref_axis',(0.,-1.,0.));
#334=DIRECTION('center_axis',(-0.5,0.,-0.866025403784438));
#335=DIRECTION('ref_axis',(0.,-1.,0.));
#336=DIRECTION('',(0.5,0.,0.866025403784438));
#337=DIRECTION('center_axis',(-0.5,0.,-0.866025403784439));
#338=DIRECTION('ref_axis',(0.,-1.,0.));
#339=DIRECTION('center_axis',(1.11022302462516E-15,0.,-1.));
#340=DIRECTION('ref_axis',(-1.,0.,-1.11022302462516E-15));
#341=DIRECTION('center_axis',(-0.5,0.,-0.866025403784439));
#342=DIRECTION('ref_axis',(-0.866025403784438,0.,0.5));
#343=CARTESIAN_POINT('',(0.,0.,0.));
#344=CARTESIAN_POINT('Ctrl Pts',(0.,0.9,2.50311699263988E-5));
#345=CARTESIAN_POINT('Ctrl Pts',(-2.50311699263988E-5,0.9,2.50311699263988E-5));
#346=CARTESIAN_POINT('Ctrl Pts',(-2.50311699263988E-5,0.9,0.));
#347=CARTESIAN_POINT('Ctrl Pts',(-2.50311699263988E-5,0.9,-2.50311699263988E-5));
#348=CARTESIAN_POINT('Ctrl Pts',(0.,0.9,-2.50311699263988E-5));
#349=CARTESIAN_POINT('Ctrl Pts',(2.50311699263988E-5,0.9,-2.50311699263988E-5));
#350=CARTESIAN_POINT('Ctrl Pts',(2.50311699263988E-5,0.9,0.));
#351=CARTESIAN_POINT('Ctrl Pts',(2.50311699263988E-5,0.9,2.50311699263988E-5));
#352=CARTESIAN_POINT('Ctrl Pts',(0.,0.9,2.50311699263988E-5));
#353=CARTESIAN_POINT('Ctrl Pts',(0.,0.9,1.14481033194045));
#354=CARTESIAN_POINT('Ctrl Pts',(-1.14481033194045,0.9,1.14481033194045));
#355=CARTESIAN_POINT('Ctrl Pts',(-1.14481033194045,0.9,0.));
#356=CARTESIAN_POINT('Ctrl Pts',(-1.14481033194045,0.9,-1.14481033194045));
#357=CARTESIAN_POINT('Ctrl Pts',(0.,0.9,-1.14481033194045));
#358=CARTESIAN_POINT('Ctrl Pts',(1.14481033194045,0.9,-1.14481033194045));
#359=CARTESIAN_POINT('Ctrl Pts',(1.14481033194045,0.9,0.));
#360=CARTESIAN_POINT('Ctrl Pts',(1.14481033194045,0.9,1.14481033194045));
#361=CARTESIAN_POINT('Ctrl Pts',(0.,0.9,1.14481033194045));
#362=CARTESIAN_POINT('Ctrl Pts',(0.,0.0230435817804536,1.88066413902702));
#363=CARTESIAN_POINT('Ctrl Pts',(-1.88066413902702,0.0230435817804536,1.88066413902702));
#364=CARTESIAN_POINT('Ctrl Pts',(-1.88066413902702,0.0230435817804536,0.));
#365=CARTESIAN_POINT('Ctrl Pts',(-1.88066413902702,0.0230435817804536,-1.88066413902702));
#366=CARTESIAN_POINT('Ctrl Pts',(0.,0.0230435817804536,-1.88066413902702));
#367=CARTESIAN_POINT('Ctrl Pts',(1.88066413902702,0.0230435817804536,-1.88066413902702));
#368=CARTESIAN_POINT('Ctrl Pts',(1.88066413902702,0.0230435817804536,0.));
#369=CARTESIAN_POINT('Ctrl Pts',(1.88066413902702,0.0230435817804536,1.88066413902702));
#370=CARTESIAN_POINT('Ctrl Pts',(0.,0.0230435817804536,1.88066413902702));
#371=CARTESIAN_POINT('',(-1.88066413902702,0.0230435817804539,4.6062986362613E-16));
#372=CARTESIAN_POINT('',(-2.30314931813065E-16,0.0230435817804539,1.88066413902702));
#373=CARTESIAN_POINT('Origin',(0.,0.0230435817804539,1.15157465906532E-16));
#374=CARTESIAN_POINT('',(-3.06543421290936E-21,0.9,2.50311699262484E-5));
#375=CARTESIAN_POINT('Origin',(-3.06543421290936E-21,-1.555,2.50311699262484E-5));
#376=CARTESIAN_POINT('Origin',(0.,0.9,0.));
#377=CARTESIAN_POINT('Origin',(0.,0.0230435817804539,1.15157465906532E-16));
#378=CARTESIAN_POINT('Origin',(0.,0.,0.));
#379=CARTESIAN_POINT('',(-1.9,0.,2.32682891837997E-16));
#380=CARTESIAN_POINT('',(-1.9,0.,2.32682891837997E-16));
#381=CARTESIAN_POINT('Origin',(0.,0.,0.));
#382=CARTESIAN_POINT('Ctrl Pts',(0.,-0.9,-2.50311699263988E-5));
#383=CARTESIAN_POINT('Ctrl Pts',(-2.50311699263988E-5,-0.9,-2.50311699263988E-5));
#384=CARTESIAN_POINT('Ctrl Pts',(-2.50311699263988E-5,-0.9,0.));
#385=CARTESIAN_POINT('Ctrl Pts',(-2.50311699263988E-5,-0.9,2.50311699263988E-5));
#386=CARTESIAN_POINT('Ctrl Pts',(0.,-0.9,2.50311699263988E-5));
#387=CARTESIAN_POINT('Ctrl Pts',(2.50311699263988E-5,-0.9,2.50311699263988E-5));
#388=CARTESIAN_POINT('Ctrl Pts',(2.50311699263988E-5,-0.9,0.));
#389=CARTESIAN_POINT('Ctrl Pts',(2.50311699263988E-5,-0.9,-2.50311699263988E-5));
#390=CARTESIAN_POINT('Ctrl Pts',(0.,-0.9,-2.50311699263988E-5));
#391=CARTESIAN_POINT('Ctrl Pts',(0.,-0.9,-1.14481033194045));
#392=CARTESIAN_POINT('Ctrl Pts',(-1.14481033194045,-0.9,-1.14481033194045));
#393=CARTESIAN_POINT('Ctrl Pts',(-1.14481033194045,-0.9,0.));
#394=CARTESIAN_POINT('Ctrl Pts',(-1.14481033194045,-0.9,1.14481033194045));
#395=CARTESIAN_POINT('Ctrl Pts',(0.,-0.9,1.14481033194045));
#396=CARTESIAN_POINT('Ctrl Pts',(1.14481033194045,-0.9,1.14481033194045));
#397=CARTESIAN_POINT('Ctrl Pts',(1.14481033194045,-0.9,0.));
#398=CARTESIAN_POINT('Ctrl Pts',(1.14481033194045,-0.9,-1.14481033194045));
#399=CARTESIAN_POINT('Ctrl Pts',(0.,-0.9,-1.14481033194045));
#400=CARTESIAN_POINT('Ctrl Pts',(0.,-0.0230435817804536,-1.88066413902702));
#401=CARTESIAN_POINT('Ctrl Pts',(-1.88066413902702,-0.0230435817804536,
-1.88066413902702));
#402=CARTESIAN_POINT('Ctrl Pts',(-1.88066413902702,-0.0230435817804536,
0.));
#403=CARTESIAN_POINT('Ctrl Pts',(-1.88066413902702,-0.0230435817804536,
1.88066413902702));
#404=CARTESIAN_POINT('Ctrl Pts',(0.,-0.0230435817804536,1.88066413902702));
#405=CARTESIAN_POINT('Ctrl Pts',(1.88066413902702,-0.0230435817804536,1.88066413902702));
#406=CARTESIAN_POINT('Ctrl Pts',(1.88066413902702,-0.0230435817804536,0.));
#407=CARTESIAN_POINT('Ctrl Pts',(1.88066413902702,-0.0230435817804536,-1.88066413902702));
#408=CARTESIAN_POINT('Ctrl Pts',(0.,-0.0230435817804536,-1.88066413902702));
#409=CARTESIAN_POINT('',(-1.88066413902702,-0.0230435817804539,-4.6062986362613E-16));
#410=CARTESIAN_POINT('',(-2.30314931813065E-16,-0.0230435817804539,-1.88066413902702));
#411=CARTESIAN_POINT('Origin',(0.,-0.0230435817804539,-1.15157465906532E-16));
#412=CARTESIAN_POINT('',(-3.06543421290936E-21,-0.9,-2.50311699262484E-5));
#413=CARTESIAN_POINT('Origin',(-3.06543421290936E-21,1.555,-2.50311699262484E-5));
#414=CARTESIAN_POINT('Origin',(0.,-0.9,0.));
#415=CARTESIAN_POINT('Origin',(0.,-0.0230435817804539,-1.15157465906532E-16));
#416=CARTESIAN_POINT('Origin',(0.,0.,0.));
#417=CARTESIAN_POINT('',(-1.9,0.,-2.32682891837997E-16));
#418=CARTESIAN_POINT('Origin',(1.49999999999927,0.,-2.40192378864668));
#419=CARTESIAN_POINT('',(1.49999999999927,-0.25,-4.7));
#420=CARTESIAN_POINT('Origin',(1.49999999999927,0.,-4.7));
#421=CARTESIAN_POINT('',(1.49999999999927,-0.25,-2.40192378864668));
#422=CARTESIAN_POINT('',(1.49999999999927,-0.25,-2.40192378864668));
#423=CARTESIAN_POINT('',(1.24999999999927,-3.06161699786838E-17,-2.40192378864733));
#424=CARTESIAN_POINT('Origin',(1.49999999999927,0.,-2.40192378864668));
#425=CARTESIAN_POINT('Origin',(1.49999999999927,0.,-2.40192378864668));
#426=CARTESIAN_POINT('Origin',(-7.55853712952614E-13,0.,-2.40192378864668));
#427=CARTESIAN_POINT('',(1.08253175473014,-3.06161699786838E-17,-1.77692378864724));
#428=CARTESIAN_POINT('Origin',(-7.55853712952614E-13,-3.06161699786838E-17,
-2.40192378864668));
#429=CARTESIAN_POINT('',(1.29903810567593,-0.25,-1.65192378864668));
#430=CARTESIAN_POINT('Origin',(1.29903810567593,0.,-1.65192378864668));
#431=CARTESIAN_POINT('Origin',(1.29903810567593,0.,-1.65192378864668));
#432=CARTESIAN_POINT('Origin',(0.749999999998005,0.,-0.700961894326798));
#433=CARTESIAN_POINT('',(0.749999999998005,-0.25,-0.700961894326798));
#434=CARTESIAN_POINT('',(0.749999999998005,-0.25,-0.700961894326798));
#435=CARTESIAN_POINT('Origin',(0.749999999998005,0.,-0.700961894326798));
#436=CARTESIAN_POINT('Origin',(1.49999999999927,0.,-4.7));
#437=CARTESIAN_POINT('Origin',(0.749999999998005,0.,-0.700961894326798));
#438=CARTESIAN_POINT('Origin',(-1.5,0.,-2.40192378864668));
#439=CARTESIAN_POINT('',(-1.5,0.25,-4.7));
#440=CARTESIAN_POINT('Origin',(-1.5,0.,-4.7));
#441=CARTESIAN_POINT('',(-1.5,0.25,-2.40192378864668));
#442=CARTESIAN_POINT('',(-1.5,0.25,-2.40192378864668));
#443=CARTESIAN_POINT('',(-1.25,3.06161699786838E-17,-2.40192378864668));
#444=CARTESIAN_POINT('Origin',(-1.5,0.,-2.40192378864668));
#445=CARTESIAN_POINT('Origin',(-1.5,0.,-2.40192378864668));
#446=CARTESIAN_POINT('Origin',(-5.82867087928207E-15,0.,-2.40192378864668));
#447=CARTESIAN_POINT('',(-1.08253175473055,3.06161699786838E-17,-1.77692378864668));
#448=CARTESIAN_POINT('Origin',(-5.82867087928207E-15,3.06161699786838E-17,
-2.40192378864668));
#449=CARTESIAN_POINT('',(-1.29903810567666,0.25,-1.65192378864669));
#450=CARTESIAN_POINT('Origin',(-1.29903810567666,0.,-1.65192378864669));
#451=CARTESIAN_POINT('Origin',(-1.29903810567666,0.,-1.65192378864669));
#452=CARTESIAN_POINT('Origin',(-0.750000000001996,0.,-0.700961894326798));
#453=CARTESIAN_POINT('',(-0.750000000001996,0.25,-0.700961894326798));
#454=CARTESIAN_POINT('',(-0.750000000001996,0.25,-0.700961894326798));
#455=CARTESIAN_POINT('Origin',(-0.750000000001996,0.,-0.700961894326798));
#456=CARTESIAN_POINT('Origin',(-1.5,0.,-4.7));
#457=CARTESIAN_POINT('Origin',(-0.750000000001996,0.,-0.700961894326798));
#458=UNCERTAINTY_MEASURE_WITH_UNIT(LENGTH_MEASURE(0.01),#462,
'DISTANCE_ACCURACY_VALUE',
'Maximum model space distance between geometric entities at asserted c
onnectivities');
#459=UNCERTAINTY_MEASURE_WITH_UNIT(LENGTH_MEASURE(0.01),#462,
'DISTANCE_ACCURACY_VALUE',
'Maximum model space distance between geometric entities at asserted c
onnectivities');
#460=(
GEOMETRIC_REPRESENTATION_CONTEXT(3)
GLOBAL_UNCERTAINTY_ASSIGNED_CONTEXT((#458))
GLOBAL_UNIT_ASSIGNED_CONTEXT((#462,#464,#465))
REPRESENTATION_CONTEXT('','3D')
);
#461=(
GEOMETRIC_REPRESENTATION_CONTEXT(3)
GLOBAL_UNCERTAINTY_ASSIGNED_CONTEXT((#459))
GLOBAL_UNIT_ASSIGNED_CONTEXT((#462,#464,#465))
REPRESENTATION_CONTEXT('','3D')
);
#462=(
LENGTH_UNIT()
NAMED_UNIT(*)
SI_UNIT(.MILLI.,.METRE.)
);
#463=(
LENGTH_UNIT()
NAMED_UNIT(*)
SI_UNIT($,.METRE.)
);
#464=(
NAMED_UNIT(*)
PLANE_ANGLE_UNIT()
SI_UNIT($,.RADIAN.)
);
#465=(
NAMED_UNIT(*)
SI_UNIT($,.STERADIAN.)
SOLID_ANGLE_UNIT()
);
#466=SHAPE_DEFINITION_REPRESENTATION(#467,#468);
#467=PRODUCT_DEFINITION_SHAPE('',$,#470);
#468=SHAPE_REPRESENTATION('',(#229),#460);
#469=PRODUCT_DEFINITION_CONTEXT('part definition',#474,'design');
#470=PRODUCT_DEFINITION('2026-09-23-15-10-53-361','C_disc_D3.8_W1.8_P3',
#471,#469);
#471=PRODUCT_DEFINITION_FORMATION('',$,#476);
#472=PRODUCT_RELATED_PRODUCT_CATEGORY('C_disc_D3.8_W1.8_P3',
'C_disc_D3.8_W1.8_P3',(#476));
#473=APPLICATION_PROTOCOL_DEFINITION('international standard',
'automotive_design',2009,#474);
#474=APPLICATION_CONTEXT(
'Core Data for Automotive Mechanical Design Process');
#475=PRODUCT_CONTEXT('part definition',#474,'mechanical');
#476=PRODUCT('2026-09-23-15-10-53-361','C_disc_D3.8_W1.8_P3',$,(#475));
#477=PRESENTATION_STYLE_ASSIGNMENT((#480));
#478=PRESENTATION_STYLE_ASSIGNMENT((#481));
#479=PRESENTATION_STYLE_ASSIGNMENT((#482));
#480=SURFACE_STYLE_USAGE(.BOTH.,#483);
#481=SURFACE_STYLE_USAGE(.BOTH.,#484);
#482=SURFACE_STYLE_USAGE(.BOTH.,#485);
#483=SURFACE_SIDE_STYLE('',(#486));
#484=SURFACE_SIDE_STYLE('',(#487));
#485=SURFACE_SIDE_STYLE('',(#488));
#486=SURFACE_STYLE_FILL_AREA(#489);
#487=SURFACE_STYLE_FILL_AREA(#490);
#488=SURFACE_STYLE_FILL_AREA(#491);
#489=FILL_AREA_STYLE('Steel - Satin',(#492));
#490=FILL_AREA_STYLE('Opaque(206,109,38)',(#493));
#491=FILL_AREA_STYLE('Opaque(210,209,199)',(#494));
#492=FILL_AREA_STYLE_COLOUR('Steel - Satin',#495);
#493=FILL_AREA_STYLE_COLOUR('Opaque(206,109,38)',#496);
#494=FILL_AREA_STYLE_COLOUR('Opaque(210,209,199)',#497);
#495=COLOUR_RGB('Steel - Satin',0.627450980392157,0.627450980392157,0.627450980392157);
#496=COLOUR_RGB('Opaque(206,109,38)',0.807843137254902,0.427450980392157,
0.149019607843137);
#497=COLOUR_RGB('Opaque(210,209,199)',0.823529411764706,0.819607843137255,
0.780392156862745);
ENDSEC;
END-ISO-10303-21;
